<?xml version="1.0" encoding="utf-8"?>
<!-- Generator: Adobe Illustrator 25.4.1, SVG Export Plug-In . SVG Version: 6.00 Build 0)  -->
<svg version="1.1" id="Layer_1" xmlns="http://www.w3.org/2000/svg" xmlns:xlink="http://www.w3.org/1999/xlink" x="0px" y="0px"
	 viewBox="0 0 32 32" style="enable-background:new 0 0 32 32;" xml:space="preserve">
<style type="text/css">
	.st0{fill:#2DA736;}
	.st1{fill:#FFFDFA;}
	.st2{fill:#FFFFFF;}
</style>
<circle class="st0" cx="16.1" cy="16" r="15.65"/>
<g>
	<path class="st1" d="M16.19,30.16c-7.79,0-14.13-6.34-14.13-14.13S8.4,1.9,16.19,1.9s14.13,6.34,14.13,14.13
		S23.98,30.16,16.19,30.16z M16.19,3.09c-7.13,0-12.94,5.8-12.94,12.94c0,7.13,5.8,12.94,12.94,12.94s12.94-5.8,12.94-12.94
		C29.13,8.9,23.32,3.09,16.19,3.09z"/>
</g>
<g>
	<g>
		<path class="st2" d="M7.14,13.63h-1.8V12.2h5.11v1.44H8.68v5.95H7.14V13.63z"/>
		<path class="st2" d="M12.62,15.12h2.9v1.36h-2.9v1.66h3.36v1.44h-4.9V12.2h4.82v1.44h-3.28V15.12z"/>
		<path class="st2" d="M16.29,17.18h1.56c0,0.49,0.13,0.83,0.4,1.01c0.15,0.11,0.38,0.16,0.71,0.16c0.28,0,0.49-0.04,0.63-0.11
			c0.23-0.12,0.35-0.34,0.35-0.66c0-0.42-0.22-0.72-0.66-0.91l-0.8-0.24c-0.76-0.21-1.29-0.47-1.57-0.78
			c-0.29-0.31-0.43-0.81-0.43-1.5c0-0.6,0.14-1.07,0.42-1.43c0.4-0.51,1.1-0.76,2.08-0.76c0.91,0,1.56,0.29,1.95,0.88
			c0.25,0.37,0.37,0.83,0.37,1.36h-1.47c0-0.32-0.11-0.54-0.33-0.68c-0.15-0.08-0.35-0.13-0.6-0.13c-0.25,0-0.45,0.05-0.61,0.14
			c-0.16,0.1-0.24,0.28-0.24,0.57c0,0.25,0.07,0.44,0.21,0.55c0.14,0.12,0.44,0.23,0.9,0.35c0.9,0.21,1.52,0.49,1.85,0.82
			c0.33,0.34,0.5,0.83,0.5,1.48c0,0.68-0.14,1.21-0.42,1.6c-0.42,0.58-1.13,0.87-2.16,0.87c-0.81,0-1.42-0.17-1.84-0.5
			C16.56,18.87,16.29,18.17,16.29,17.18z"/>
		<path class="st2" d="M23.53,13.63h-1.8V12.2h5.11v1.44h-1.78v5.95h-1.54V13.63z"/>
	</g>
</g>
</svg>
